<?xml version="1.0" encoding="UTF-8" standalone="no"?>
<!-- Created with Inkscape (http://www.inkscape.org/) -->

<svg
   width="189.9593mm"
   height="22.732849mm"
   viewBox="0 0 189.9593 22.732849"
   version="1.1"
   id="svg5"
   xml:space="preserve"
   inkscape:export-filename="image.svg"
   inkscape:export-xdpi="96"
   inkscape:export-ydpi="96"
   inkscape:version="1.2.2 (732a01da63, 2022-12-09)"
   sodipodi:docname="dessin.svg"
   xmlns:inkscape="http://www.inkscape.org/namespaces/inkscape"
   xmlns:sodipodi="http://sodipodi.sourceforge.net/DTD/sodipodi-0.dtd"
   xmlns="http://www.w3.org/2000/svg"
   xmlns:svg="http://www.w3.org/2000/svg"><sodipodi:namedview
     id="namedview7"
     pagecolor="#505050"
     bordercolor="#eeeeee"
     borderopacity="1"
     inkscape:showpageshadow="0"
     inkscape:pageopacity="0"
     inkscape:pagecheckerboard="0"
     inkscape:deskcolor="#505050"
     inkscape:document-units="mm"
     showgrid="false"
     inkscape:zoom="0.81705853"
     inkscape:cx="142.58464"
     inkscape:cy="377.57393"
     inkscape:window-width="1920"
     inkscape:window-height="1051"
     inkscape:window-x="-9"
     inkscape:window-y="-9"
     inkscape:window-maximized="1"
     inkscape:current-layer="layer1" /><defs
     id="defs2" /><g
     inkscape:label="Calque 1"
     inkscape:groupmode="layer"
     id="layer1"
     transform="translate(-11.492918,-148.64938)"><g
       style="fill:#0645c4"
       id="g181"
       transform="matrix(0.04440015,0,0,0.04440015,11.492943,148.64939)"><g
         id="SVGRepo_bgCarrier"
         stroke-width="0" /><g
         id="SVGRepo_tracerCarrier"
         stroke-linecap="round"
         stroke-linejoin="round"
         stroke="#cccccc"
         stroke-width="3.07201" /><g
         id="SVGRepo_iconCarrier"> <g
   id="g158"> <g
   id="g156"> <path
   d="M 497.081,14.918 C 486.538,4.375 471.963,-1 457.116,0.154 415.823,3.378 375.291,13.079 336.645,28.987 300.093,44.032 264.592,64.895 231.852,91.978 c -19.69,16.288 -37.61,34.159 -53.654,53.379 -49.801,3.27 -97.17,25.123 -134.128,62.082 -17.485,17.485 -31.766,37.741 -42.448,60.206 -3.042,6.399 -1.728,14.021 3.282,19.03 3.212,3.212 7.496,4.905 11.844,4.905 2.435,0 4.89,-0.531 7.186,-1.623 26.213,-12.464 54.835,-18.086 82.382,-16.403 -1.974,5.837 -3.822,11.729 -5.533,17.677 l -53.489,32.093 c -9.344,5.606 -10.914,18.51 -3.225,26.199 l 24.703,24.703 c -7.776,10.173 -17.263,24.056 -25.316,37.938 -7.169,12.358 -12.296,23.132 -15.24,32.022 -5.211,15.738 -3.861,27.711 4.012,35.583 9.307,9.307 22.991,8.183 35.583,4.012 8.889,-2.944 19.663,-8.071 32.022,-15.24 13.882,-8.052 27.764,-17.539 37.938,-25.315 l 24.703,24.703 c 7.668,7.668 20.571,6.154 26.199,-3.225 l 32.093,-53.489 c 5.948,-1.71 11.84,-3.559 17.678,-5.533 1.682,27.546 -3.941,56.168 -16.403,82.382 -3.043,6.399 -1.728,14.021 3.282,19.031 5.011,5.01 12.63,6.324 19.031,3.282 22.466,-10.682 42.722,-24.964 60.206,-42.448 36.957,-36.957 58.812,-84.327 62.082,-134.128 19.22,-16.043 37.09,-33.964 53.379,-53.654 27.083,-32.739 47.944,-68.238 62.991,-104.791 C 498.92,136.71 508.62,96.178 511.845,54.885 513.005,40.028 507.623,25.46 497.081,14.918 Z m -441.07,229.12 c 3.698,-4.483 7.613,-8.792 11.741,-12.919 23.463,-23.463 51.8,-39.709 82.152,-47.482 -11.881,18.254 -22.245,37.446 -31.005,57.434 -20.68,-2.438 -41.985,-1.407 -62.888,2.967 z m 33.406,191.721 c -12.792,7.848 -21.77,12.214 -27.819,14.643 2.428,-6.049 6.795,-15.027 14.643,-27.819 5.62,-9.161 11.488,-17.714 16.447,-24.443 l 21.172,21.172 c -6.729,4.959 -15.283,10.828 -24.443,16.447 z m 81.575,-6.677 -88.074,-88.074 29.601,-17.761 76.234,76.234 z m 96.969,26.905 c 4.375,-20.902 5.406,-42.209 2.967,-62.886 19.988,-8.761 39.18,-19.124 57.433,-31.005 -9.441,36.868 -31.296,69.887 -60.4,93.891 z M 214.73,378.096 133.903,297.27 C 160.72,207.104 221.061,130.328 302.696,82.7 L 429.298,209.302 C 382.817,288.976 306.998,350.654 214.73,378.096 Z M 478.457,52.277 c -3.468,44.422 -14.886,86.907 -32.925,125.898 L 333.825,66.468 c 38.991,-18.039 81.476,-29.457 125.898,-32.925 5.156,-0.406 10.013,1.393 13.677,5.056 3.664,3.664 5.46,8.521 5.057,13.678 z"
   id="path154" /> </g> </g> <g
   id="g164"> <g
   id="g162"> <path
   d="m 340.084,171.916 c -26.147,-26.148 -68.576,-26.15 -94.724,0 -26.115,26.116 -26.115,68.608 0,94.724 26.114,26.116 68.608,26.117 94.724,0 26.115,-26.115 26.115,-68.609 0,-94.724 z m -23.681,71.043 c -13.058,13.057 -34.304,13.057 -47.363,0 -13.058,-13.058 -13.058,-34.304 0,-47.363 13.059,-13.06 34.302,-13.06 47.362,0 13.058,13.058 13.058,34.306 0.001,47.363 z"
   id="path160" /> </g> </g> </g></g><text
       xml:space="preserve"
       style="font-style:normal;font-variant:normal;font-weight:normal;font-stretch:normal;font-size:16.9333px;font-family:'Roboto Mono';-inkscape-font-specification:'Roboto Mono';fill:#fcdd1b;stroke-width:0.264583"
       x="40.114586"
       y="164.3125"
       id="text451"><tspan
         sodipodi:role="line"
         id="tspan449"
         style="font-size:16.9333px;fill:#ffffff;stroke-width:0.264583"
         x="40.114586"
         y="164.3125">rdvptrwjeiptwpes</tspan></text></g></svg>
